<?xml version="1.0" encoding="iso-8859-1"?>
<!-- Generator: Adobe Illustrator 18.0.0, SVG Export Plug-In . SVG Version: 6.00 Build 0)  -->
<!DOCTYPE svg PUBLIC "-//W3C//DTD SVG 1.1//EN" "http://www.w3.org/Graphics/SVG/1.1/DTD/svg11.dtd">
<svg version="1.1" id="Capa_1" xmlns="http://www.w3.org/2000/svg" xmlns:xlink="http://www.w3.org/1999/xlink" x="0px" y="0px"
	 viewBox="0 0 419.332 419.332" style="enable-background:new 0 0 419.332 419.332;" xml:space="preserve">
<g>
	<path d="M165.782,354.255c-3.268,1.163-6.648,2.362-10.495,2.362c-0.224,0-0.447-0.005-0.671-0.013v23.262h21.306v-0.475v-26.811
		c-0.699-0.156-1.406-0.258-2.141-0.258C171.22,352.323,168.578,353.263,165.782,354.255z"/>
	<path d="M29.321,329.028v-3.727h3.728h6.019h3.728v2.774c0.222,0.014,0.445,0.022,0.672,0.022c2.563,0,5.204-0.939,8-1.932
		c3.269-1.161,6.648-2.361,10.494-2.361c3.28,0,6.335,0.879,9.338,2.688l1.805,1.087v2.107v21.067v6.596l-5.65-3.403
		c-1.835-1.105-3.58-1.621-5.492-1.621c-2.562,0-5.203,0.939-7.999,1.932c-3.269,1.163-6.648,2.362-10.495,2.362
		c-0.225,0-0.448-0.005-0.672-0.013v23.262h42.436v-50.838v-3.727h3.728h6.02h3.728v2.774c0.222,0.014,0.445,0.022,0.672,0.022
		c2.563,0,5.204-0.939,8-1.932c3.269-1.161,6.648-2.361,10.494-2.361c3.28,0,6.335,0.879,9.338,2.688l1.805,1.087v2.107v21.067
		v6.596l-5.65-3.403c-1.835-1.105-3.58-1.621-5.492-1.621c-2.562,0-5.203,0.939-7.999,1.932c-3.269,1.163-6.648,2.362-10.495,2.362
		c-0.225,0-0.448-0.005-0.672-0.013v23.262h42.436v-50.838v-3.727h3.727h6.02h3.727v2.774c0.222,0.014,0.445,0.022,0.672,0.022
		c2.561,0,5.203-0.939,7.999-1.932c3.269-1.161,6.648-2.361,10.495-2.361c0.725,0,1.436,0.051,2.14,0.137v-36.622
		c-110.82-27.31-160.553-91.022-160.553-91.022v183.57h13.952V329.028z"/>
	<path d="M197.052,329.028v-3.727h3.728h6.018h3.727v2.773c0.222,0.015,0.446,0.023,0.673,0.023c2.563,0,5.204-0.939,8.001-1.932
		c3.269-1.161,6.648-2.361,10.494-2.361c3.28,0,6.335,0.879,9.338,2.688l1.805,1.087v2.107v21.067v6.596l-5.651-3.403
		c-1.834-1.105-3.579-1.621-5.492-1.621c-2.561,0-5.202,0.939-7.998,1.932c-3.27,1.163-6.649,2.362-10.497,2.362
		c-0.225,0-0.448-0.005-0.672-0.013v22.787h42.438v-50.363v-3.727h3.727h6.02h3.727v2.774c0.222,0.014,0.445,0.022,0.672,0.022
		c2.563,0,5.204-0.939,8-1.932c3.268-1.161,6.647-2.361,10.494-2.361c3.28,0,6.335,0.879,9.338,2.688l1.805,1.087v2.107v21.067
		v6.596l-5.651-3.403c-1.834-1.105-3.579-1.621-5.492-1.621c-2.561,0-5.202,0.939-7.998,1.932
		c-3.269,1.163-6.648,2.362-10.496,2.362c-0.224,0-0.447-0.005-0.671-0.013v22.787h42.434v-50.363v-3.727h3.728h6.022h3.728v2.774
		c0.222,0.014,0.445,0.022,0.671,0.022c2.563,0,5.203-0.939,8-1.932c3.268-1.161,6.648-2.361,10.495-2.361
		c3.28,0,6.335,0.879,9.338,2.688l1.805,1.087v2.107v21.067v6.596l-5.651-3.403c-1.834-1.105-3.579-1.621-5.492-1.621
		c-2.561,0-5.203,0.939-7.999,1.932c-3.269,1.163-6.648,2.362-10.495,2.362c-0.225,0-0.448-0.005-0.671-0.013v22.787h81.616V13.198
		H185.24v366.193h11.811V329.028z M203.523,31.36h182.154v16.879H203.523V31.36z M203.523,143.181h182.154v16.879H203.523V143.181z
		 M203.523,255.002h182.154v16.878H203.523V255.002z"/>
	<path d="M318.619,389.467v-37.308c1.513,0.518,2.974,0.73,4.398,0.73c6.408,0,12.086-4.293,18.494-4.293
		c2.35,0,4.797,0.576,7.416,2.155c0-8.429,0-12.643,0-21.067c-2.618-1.576-5.065-2.154-7.415-2.154
		c-6.408,0-12.087,4.293-18.495,4.293c-1.425,0-2.885-0.211-4.398-0.73v-2.065h-6.022v60.439h-49.889v-37.308
		c1.514,0.518,2.975,0.73,4.398,0.73c6.409,0,12.087-4.293,18.494-4.293c2.351,0,4.797,0.576,7.416,2.155c0-8.429,0-12.643,0-21.067
		c-2.618-1.576-5.066-2.154-7.415-2.154c-6.408,0-12.085,4.293-18.494,4.293c-1.425,0-2.886-0.211-4.399-0.73v-2.065h-6.02v60.439
		h-49.892v-37.308c1.514,0.518,2.975,0.73,4.399,0.73c6.41,0,12.088-4.293,18.495-4.293c2.351,0,4.797,0.576,7.416,2.155
		c0-8.429,0-12.643,0-21.067c-2.618-1.576-5.065-2.154-7.415-2.154c-6.408,0-12.086,4.293-18.495,4.293
		c-1.426,0-2.886-0.211-4.4-0.73v-2.065h-6.018v60.439h-49.891v-37.308c1.513,0.518,2.974,0.73,4.398,0.73
		c6.408,0,12.086-4.293,18.494-4.293c2.351,0,4.798,0.576,7.416,2.155c0-8.429,0-12.643,0-21.067
		c-2.618-1.576-5.065-2.154-7.415-2.154c-6.408,0-12.086,4.293-18.494,4.293c-1.426,0-2.886-0.211-4.399-0.73v-2.065h-6.02v60.439
		H94.979v-37.308c1.514,0.518,2.975,0.73,4.399,0.73c6.408,0,12.086-4.293,18.494-4.293c2.35,0,4.797,0.576,7.415,2.155
		c0-8.429,0-12.643,0-21.067c-2.618-1.576-5.065-2.154-7.415-2.154c-6.408,0-12.085,4.293-18.494,4.293
		c-1.425,0-2.886-0.211-4.399-0.73v-2.065h-6.02v60.439H39.068v-37.308c1.514,0.518,2.975,0.73,4.4,0.73
		c6.408,0,12.086-4.293,18.494-4.293c2.35,0,4.797,0.576,7.415,2.155c0-8.429,0-12.643,0-21.067
		c-2.618-1.576-5.065-2.154-7.415-2.154c-6.408,0-12.085,4.293-18.494,4.293c-1.425,0-2.886-0.211-4.4-0.73v-2.065h-6.019v60.439H0
		v16.667h419.332v-16.667H318.619z"/>
</g>
<g>
</g>
<g>
</g>
<g>
</g>
<g>
</g>
<g>
</g>
<g>
</g>
<g>
</g>
<g>
</g>
<g>
</g>
<g>
</g>
<g>
</g>
<g>
</g>
<g>
</g>
<g>
</g>
<g>
</g>
</svg>
